<?xml version="1.0" standalone="no"?>
<!DOCTYPE svg PUBLIC "-//W3C//DTD SVG 20010904//EN"
 "http://www.w3.org/TR/2001/REC-SVG-20010904/DTD/svg10.dtd">
<svg version="1.0" xmlns="http://www.w3.org/2000/svg"
 width="261.000000pt" height="261.000000pt" viewBox="0 0 261.000000 261.000000"
 preserveAspectRatio="xMidYMid meet">
<metadata>
Created by potrace 1.14, written by Peter Selinger 2001-2017
</metadata>
<g transform="translate(0.000000,261.000000) scale(0.100000,-0.100000)"
fill="#000000" stroke="none">
<path d="M1185 2534 c-172 -19 -375 -87 -508 -171 -56 -35 -39 -39 19 -5 291
171 675 212 993 106 90 -30 215 -90 290 -139 65 -43 79 -40 19 5 -94 70 -295
153 -448 185 -75 16 -289 27 -365 19z"/>
<path d="M1191 2489 c-447 -44 -835 -346 -997 -777 -26 -67 -29 -82 -16 -82 4
0 18 32 31 70 13 39 27 70 30 70 3 -1 33 -40 67 -88 33 -48 148 -208 253 -355
181 -251 192 -269 175 -282 -11 -8 -22 -15 -26 -15 -5 0 -144 185 -198 263
-54 80 -177 247 -198 270 -32 33 -61 34 -91 3 -17 -18 -22 -32 -17 -50 11 -46
87 -43 85 3 0 11 -3 9 -9 -6 -12 -29 -46 -30 -60 -3 -12 22 0 54 24 63 33 13
60 -10 133 -112 280 -390 316 -443 302 -451 -8 -5 -59 -38 -114 -74 -205 -134
-215 -140 -244 -130 -32 12 -44 70 -15 81 24 9 49 -11 47 -38 -2 -21 -1 -22 8
-7 27 47 -46 80 -76 34 -25 -38 4 -85 53 -86 14 0 108 54 222 129 181 118 199
128 214 113 17 -17 8 -24 -239 -181 -39 -25 -103 -66 -143 -93 -41 -26 -77
-48 -81 -48 -9 0 -81 146 -81 164 0 8 19 27 43 43 121 81 167 117 163 130 -3
7 -69 103 -146 214 l-141 201 15 76 c14 67 14 94 2 81 -2 -2 -12 -40 -21 -84
-24 -109 -24 -341 -1 -450 98 -461 428 -812 871 -925 370 -95 773 -3 1057 242
56 48 83 75 156 157 41 44 122 172 156 246 38 79 79 209 97 305 18 98 16 319
-5 423 -32 167 -112 346 -216 486 -67 89 -223 241 -250 241 -10 0 -25 11 -33
24 -17 26 -160 103 -261 141 -142 53 -363 81 -525 64z m43 -211 c-29 -106 -86
-311 -126 -455 -67 -244 -74 -262 -93 -257 -11 4 -22 8 -24 10 -2 2 45 172
104 378 102 356 107 377 92 399 -19 30 -48 38 -79 23 -26 -13 -35 -50 -18 -72
14 -15 46 -19 54 -5 3 4 -5 6 -18 4 -29 -6 -40 10 -32 43 9 33 59 34 80 2 14
-21 7 -52 -91 -393 -58 -203 -106 -371 -108 -373 -5 -6 -602 212 -618 226 -25
22 -18 63 13 79 17 9 20 13 8 13 -44 0 -65 -72 -30 -103 10 -9 94 -43 187 -76
425 -148 495 -174 495 -180 -1 -41 -25 -34 -677 201 l-112 41 41 79 c23 44 47
82 54 85 12 4 511 -153 526 -166 7 -6 -12 -84 -23 -96 -4 -3 -39 6 -79 21 -39
14 -74 23 -77 20 -3 -3 0 -8 8 -10 8 -3 71 -25 140 -50 l126 -44 32 115 c18
63 30 117 28 120 -3 2 -13 -21 -22 -52 -15 -54 -18 -57 -43 -52 -56 11 -84 27
-78 43 7 17 186 643 186 649 0 9 206 35 221 28 4 -1 -18 -89 -47 -195z m286
177 l35 -6 93 -322 c51 -177 94 -328 95 -336 2 -12 -67 -40 -99 -41 -6 0 -17
25 -24 55 -7 30 -17 55 -21 55 -4 0 1 -28 11 -62 10 -35 25 -88 34 -119 l16
-57 107 38 c149 53 166 60 161 65 -3 3 -35 -6 -72 -20 -36 -14 -70 -25 -74
-25 -12 0 -34 92 -25 101 9 8 504 169 520 169 12 0 96 -147 91 -161 -3 -10
-740 -278 -765 -279 -7 0 -13 8 -13 19 0 18 32 31 393 158 26 9 47 21 47 26 0
4 -4 6 -10 2 -30 -19 -375 -133 -380 -126 -3 5 -52 174 -109 375 -103 360
-104 366 -86 386 22 25 63 23 79 -2 8 -14 7 -22 -7 -35 -15 -15 -20 -16 -38
-5 -18 11 -20 11 -17 0 7 -19 53 -22 67 -4 19 22 5 65 -25 78 -20 10 -29 8
-52 -9 -15 -11 -28 -29 -30 -41 -2 -12 44 -186 103 -388 58 -202 104 -368 103
-369 -8 -7 -48 -16 -48 -11 0 4 -56 208 -125 455 -69 247 -125 450 -125 453 0
5 142 -7 190 -17z m-181 -62 c11 -43 72 -262 135 -487 l114 -410 -23 -35 c-34
-56 -58 -104 -46 -97 5 4 25 33 43 66 18 33 39 62 48 66 8 3 170 61 360 129
190 67 354 126 364 131 25 10 37 28 -199 -301 -302 -420 -309 -430 -318 -436
-5 -3 -76 -12 -158 -19 -82 -7 -149 -15 -149 -19 0 -3 71 0 158 8 l157 14 230
-148 c127 -81 234 -152 239 -156 5 -5 -3 -24 -19 -45 l-28 -37 -354 7 -353 7
0 -29 c0 -46 -50 -133 -97 -168 -82 -62 -205 -55 -286 17 -45 39 -58 61 -77
137 l-11 44 -352 -7 -352 -7 -22 36 c-13 20 -23 38 -23 40 0 2 100 68 223 147
122 78 227 147 234 153 9 8 56 7 170 -4 87 -9 160 -15 162 -13 11 8 -16 12
-157 24 l-154 13 -151 211 c-83 115 -178 247 -211 293 -34 46 -68 93 -76 105
-8 12 -32 46 -53 75 -21 30 -37 55 -35 57 1 1 91 -29 198 -67 107 -38 272 -97
365 -130 94 -34 176 -65 183 -71 6 -5 24 -31 39 -58 14 -27 30 -49 34 -49 5 0
-7 27 -27 60 l-35 60 35 123 c19 67 71 255 116 417 112 404 120 430 129 430 5
0 18 -35 30 -77z m-292 40 c-2 -5 -39 -132 -82 -283 -43 -151 -79 -276 -80
-278 -2 -2 -66 18 -72 23 -2 1 10 46 26 101 83 286 82 283 50 315 -28 28 -69
22 -89 -13 -14 -26 -13 -29 6 -49 22 -21 64 -20 64 3 0 7 -5 7 -14 -1 -34 -29
-68 21 -36 53 19 19 22 20 48 6 15 -9 28 -23 30 -33 2 -9 -16 -84 -39 -167
-40 -143 -43 -149 -65 -144 -19 5 -26 0 -36 -20 -6 -15 -16 -25 -22 -23 -6 2
-58 17 -115 33 -117 32 -143 54 -122 100 9 20 17 25 38 22 34 -4 43 -36 17
-55 -16 -12 -16 -13 -1 -13 24 0 40 35 27 60 -23 43 -100 12 -100 -40 0 -37
29 -53 174 -95 81 -24 150 -45 152 -48 9 -8 -19 -68 -30 -64 -6 3 -104 35
-216 72 -113 37 -207 69 -209 71 -9 8 75 107 156 185 135 130 265 208 438 265
72 24 109 30 102 17z m631 -19 c106 -35 274 -125 352 -189 97 -80 252 -247
239 -259 -5 -5 -401 -133 -424 -138 -12 -2 -21 6 -28 25 -5 16 -6 31 -3 34 3
3 69 24 147 47 119 34 145 46 163 69 19 26 19 30 5 55 -11 21 -22 27 -48 27
-40 0 -62 -25 -45 -52 6 -9 17 -19 25 -22 9 -3 8 2 -4 14 -20 20 -18 34 6 49
38 24 76 -43 43 -76 -8 -8 -56 -27 -108 -41 -51 -14 -101 -29 -110 -32 -13 -5
-20 0 -28 20 -8 22 -15 26 -35 22 -23 -4 -27 0 -41 52 -9 31 -27 92 -40 137
-29 98 -30 125 -4 149 27 25 70 7 70 -29 0 -28 -26 -42 -48 -24 -13 11 -14 10
-10 -2 13 -40 68 -16 68 30 0 36 -39 58 -75 42 -45 -21 -47 -50 -14 -164 17
-57 36 -125 44 -153 7 -27 18 -63 24 -78 10 -26 9 -29 -25 -43 -20 -8 -38 -14
-39 -12 -2 2 -38 125 -81 273 -42 149 -79 276 -81 283 -7 18 20 15 105 -14z
m-870 -477 c4 -20 -25 -34 -39 -20 -14 14 1 45 20 41 9 -2 17 -11 19 -21z
m1045 4 c6 -23 0 -31 -24 -31 -19 0 -33 37 -15 44 23 9 34 6 39 -13z m-980
-80 c13 -13 -11 -61 -28 -56 -8 3 -22 7 -30 10 -11 3 -12 10 -4 35 9 25 15 29
33 24 11 -3 25 -10 29 -13z m931 -3 c9 -35 8 -38 -20 -49 -31 -11 -30 -12 -39
23 -6 23 -3 29 16 37 34 14 36 13 43 -11z m591 -118 c4 -18 11 -27 17 -24 7 4
8 2 4 -5 -4 -6 0 -33 8 -59 9 -26 22 -80 30 -119 l13 -72 -99 -143 c-55 -79
-123 -174 -150 -212 -27 -38 -45 -72 -40 -75 90 -58 212 -147 212 -156 0 -16
-68 -153 -80 -160 -7 -5 -102 54 -418 258 -58 37 -61 41 -46 58 15 16 26 11
192 -100 98 -65 187 -123 199 -129 50 -27 103 -2 103 48 0 31 -17 50 -45 50
-38 0 -62 -48 -33 -66 8 -5 9 -2 5 9 -14 38 23 63 51 35 27 -27 1 -78 -38 -78
-20 0 -350 210 -350 222 0 16 383 539 401 549 31 16 71 -14 67 -49 -4 -37 -49
-39 -58 -2 -4 15 -9 20 -13 13 -20 -32 38 -68 68 -43 24 20 19 67 -10 86 -50
32 -62 20 -265 -264 -106 -147 -196 -271 -200 -275 -10 -12 -51 15 -46 30 3 6
69 100 147 210 79 109 190 264 248 346 58 81 109 147 113 147 3 0 9 -14 13
-30z m-1452 3 c15 -3 27 -7 27 -10 0 -2 -5 -24 -11 -49 -10 -39 -14 -44 -33
-38 -72 23 -75 26 -55 83 8 24 16 31 28 26 9 -4 28 -9 44 -12z m805 -22 c7
-21 12 -41 12 -44 0 -4 -74 -37 -84 -37 -6 0 -26 61 -26 80 0 16 31 30 81 39
3 1 11 -16 17 -38z m-1547 -353 c23 -35 71 -102 106 -150 l62 -88 -46 -31 -45
-32 -23 28 -22 28 -26 -19 c-31 -23 -32 -27 -9 -45 15 -12 16 -12 5 2 -11 13
-9 19 7 34 20 18 21 18 35 -1 20 -26 19 -31 -12 -48 -18 -10 -22 -15 -12 -16
9 0 22 7 29 15 7 8 18 15 24 15 7 0 31 14 54 31 24 17 44 30 46 28 1 -2 14
-20 29 -39 l26 -36 -34 -27 c-19 -15 -38 -27 -42 -27 -4 0 -17 14 -28 30 -11
16 -24 30 -28 30 -4 0 4 -16 19 -35 15 -20 25 -37 23 -38 -63 -46 -111 -77
-118 -77 -10 0 -36 79 -56 175 -25 115 -32 355 -11 355 2 0 23 -28 47 -62z
m2269 -160 c-13 -132 -56 -308 -76 -308 -5 0 -178 116 -203 136 -5 5 50 84 58
84 3 0 21 -13 40 -29 l34 -28 -22 -32 c-13 -18 -20 -35 -17 -38 3 -4 6 -2 6 4
0 6 21 33 48 61 38 41 50 49 65 41 21 -12 22 -32 2 -49 -12 -10 -18 -10 -32 1
-17 12 -17 12 -1 -6 17 -18 18 -18 38 0 26 24 25 40 -2 60 -22 15 -24 14 -46
-11 l-23 -26 -40 28 c-22 15 -42 30 -44 33 -2 4 45 74 103 156 l107 150 7 -60
c5 -34 4 -106 -2 -167z m-1408 -600 c4 -7 8 -16 8 -20 0 -5 -111 -8 -246 -8
-281 0 -303 -5 -304 -69 0 -30 26 -61 51 -61 23 0 52 42 43 63 -6 18 -34 31
-34 17 0 -6 5 -10 10 -10 6 0 10 -11 10 -25 0 -21 -5 -25 -30 -25 -23 0 -31 5
-36 24 -3 13 -1 34 6 45 9 18 20 21 83 22 40 0 140 2 223 5 l152 4 10 -42 c25
-98 108 -181 196 -195 l36 -6 0 -88 c0 -88 0 -89 -25 -89 -24 0 -25 2 -25 63
0 70 -12 93 -52 102 -28 7 -68 -21 -68 -48 0 -38 68 -61 78 -27 4 12 2 13 -9
2 -19 -18 -37 -15 -49 8 -8 15 -6 24 10 40 21 21 46 18 68 -8 6 -9 12 -42 12
-75 l0 -59 -42 7 c-58 9 -158 33 -185 45 -21 9 -23 16 -23 95 l0 85 62 0 61 0
-20 23 c-11 12 -26 32 -32 45 -9 16 -21 22 -46 22 -34 0 -35 -1 -35 -40 l0
-40 -170 0 -169 0 -101 100 c-55 56 -100 105 -100 110 0 6 108 11 263 12 144
2 295 4 336 6 52 2 77 -1 83 -10z m1173 -2 c5 -2 -38 -51 -96 -110 l-106 -106
-169 2 -169 3 -1 25 c-2 48 -4 50 -36 50 -28 -1 -37 -7 -60 -45 l-27 -45 54 0
55 0 0 -89 0 -88 -57 -16 c-44 -12 -165 -37 -178 -37 -9 0 -13 95 -5 114 19
50 90 55 90 7 0 -27 -27 -48 -42 -33 -17 17 -33 15 -18 -3 15 -18 42 -19 58
-3 37 37 -15 102 -64 80 -30 -15 -44 -49 -44 -113 0 -42 -3 -49 -20 -49 -19 0
-20 7 -20 90 0 82 2 90 19 90 25 0 100 34 127 57 35 30 66 82 78 131 l12 47
210 -3 c115 -1 219 -5 231 -7 34 -8 42 -53 14 -76 -38 -31 -77 6 -45 42 10 11
12 19 7 19 -37 0 -40 -73 -3 -85 70 -22 93 89 24 115 -14 6 -133 10 -265 10
-192 0 -239 3 -239 13 0 8 3 16 6 19 5 6 657 -1 679 -6z m-1145 -83 c35 -79
90 -123 173 -138 l38 -7 -3 -117 c-3 -108 -4 -116 -23 -116 -18 0 -20 8 -23
98 -3 93 -4 97 -25 97 -39 0 -123 46 -156 86 -30 37 -63 120 -54 137 2 4 15 7
28 7 19 0 28 -10 45 -47z m507 11 c-14 -88 -100 -174 -187 -189 l-39 -7 -3
-95 c-3 -91 -4 -96 -25 -99 -23 -4 -23 -3 -23 115 l0 119 40 7 c66 11 130 61
163 128 24 47 33 57 54 57 24 0 25 -3 20 -36z m-607 -88 c0 -7 7 -19 15 -26
30 -25 11 -30 -67 -21 -5 1 -8 15 -8 31 0 27 3 30 30 30 19 0 30 -5 30 -14z
m690 -16 c0 -17 -5 -30 -12 -31 -7 0 -25 -2 -40 -4 -33 -4 -33 -2 -11 36 11
19 26 29 40 29 19 0 23 -5 23 -30z m-760 -135 c0 -47 -3 -85 -6 -85 -26 0
-304 151 -304 166 0 2 70 4 155 4 l155 0 0 -85z m1059 63 c-34 -31 -71 -53
-164 -98 -123 -59 -119 -60 -118 35 1 44 2 81 2 83 1 1 70 2 153 2 l153 0 -26
-22z"/>
<path d="M1046 2261 c-4 -7 -5 -15 -2 -18 9 -9 19 4 14 18 -4 11 -6 11 -12 0z"/>
<path d="M1116 2234 c-4 -14 -5 -29 -2 -31 3 -3 8 7 12 21 3 15 4 29 1 32 -2
3 -8 -7 -11 -22z"/>
<path d="M1076 2089 c-10 -33 -16 -63 -13 -65 2 -3 12 23 21 57 10 33 16 63
13 65 -2 3 -12 -23 -21 -57z"/>
<path d="M1000 2101 c0 -6 5 -13 10 -16 6 -3 10 1 10 9 0 9 -4 16 -10 16 -5 0
-10 -4 -10 -9z"/>
<path d="M1040 1968 c0 -7 -3 -24 -7 -38 -9 -36 6 -19 17 19 5 19 5 31 -1 31
-5 0 -9 -6 -9 -12z"/>
<path d="M960 1961 c0 -6 5 -13 10 -16 6 -3 10 1 10 9 0 9 -4 16 -10 16 -5 0
-10 -4 -10 -9z"/>
<path d="M400 1896 c0 -2 8 -10 18 -17 15 -13 16 -12 3 4 -13 16 -21 21 -21
13z"/>
<path d="M408 1838 c-15 -15 -16 -18 -3 -18 9 0 18 7 22 15 8 23 0 24 -19 3z"/>
<path d="M490 1850 c0 -5 5 -10 10 -10 6 0 10 5 10 10 0 6 -4 10 -10 10 -5 0
-10 -4 -10 -10z"/>
<path d="M930 1830 c0 -5 5 -10 10 -10 6 0 10 5 10 10 0 6 -4 10 -10 10 -5 0
-10 -4 -10 -10z"/>
<path d="M460 1800 c8 -5 22 -10 30 -10 13 0 13 1 0 10 -8 5 -22 10 -30 10
-13 0 -13 -1 0 -10z"/>
<path d="M630 1800 c0 -5 7 -10 16 -10 8 0 12 5 9 10 -3 6 -10 10 -16 10 -5 0
-9 -4 -9 -10z"/>
<path d="M550 1772 c0 -4 23 -14 50 -24 28 -9 50 -13 50 -9 0 4 -22 14 -50 23
-27 9 -50 13 -50 10z"/>
<path d="M790 1750 c0 -5 7 -10 15 -10 8 0 15 5 15 10 0 6 -7 10 -15 10 -8 0
-15 -4 -15 -10z"/>
<path d="M1555 2261 c-3 -5 -1 -12 5 -16 5 -3 10 1 10 9 0 18 -6 21 -15 7z"/>
<path d="M1490 2230 c0 -11 4 -20 9 -20 5 0 7 9 4 20 -3 11 -7 20 -9 20 -2 0
-4 -9 -4 -20z"/>
<path d="M1527 2093 c9 -32 21 -62 26 -68 7 -7 8 -5 5 5 -3 8 -11 39 -18 68
-8 28 -17 52 -21 52 -4 0 0 -26 8 -57z"/>
<path d="M1596 2101 c-4 -5 -2 -12 3 -15 5 -4 12 -2 15 3 4 5 2 12 -3 15 -5 4
-12 2 -15 -3z"/>
<path d="M1566 1960 c4 -19 10 -42 15 -50 15 -27 10 22 -6 55 l-15 30 6 -35z"/>
<path d="M1636 1961 c-4 -5 -2 -12 3 -15 5 -4 12 -2 15 3 4 5 2 12 -3 15 -5 4
-12 2 -15 -3z"/>
<path d="M2190 1881 c-12 -24 -4 -48 21 -62 26 -13 24 3 -1 19 -17 10 -18 16
-10 32 15 29 58 26 72 -5 19 -42 -7 -66 -118 -104 -55 -19 -103 -38 -109 -44
-13 -12 16 -3 130 39 93 35 115 52 115 89 0 48 -78 76 -100 36z"/>
<path d="M2105 1851 c-6 -11 9 -23 19 -14 9 9 7 23 -3 23 -6 0 -12 -4 -16 -9z"/>
<path d="M1670 1830 c0 -5 5 -10 10 -10 6 0 10 5 10 10 0 6 -4 10 -10 10 -5 0
-10 -4 -10 -10z"/>
<path d="M1960 1800 c0 -5 5 -10 10 -10 6 0 10 5 10 10 0 6 -4 10 -10 10 -5 0
-10 -4 -10 -10z"/>
<path d="M2125 1800 l-20 -9 20 0 c11 0 27 4 35 9 13 9 13 10 0 9 -8 0 -24 -4
-35 -9z"/>
<path d="M2013 1762 c-24 -9 -43 -19 -43 -23 0 -8 85 22 96 34 11 11 -7 7 -53
-11z"/>
<path d="M1800 1750 c0 -5 5 -10 10 -10 6 0 10 5 10 10 0 6 -4 10 -10 10 -5 0
-10 -4 -10 -10z"/>
<path d="M1245 2118 c-22 -78 -42 -148 -43 -156 -3 -9 7 -6 27 9 26 19 29 25
18 38 -11 14 -10 14 6 2 31 -25 38 -1 35 127 l-3 122 -40 -142z"/>
<path d="M1323 2247 c4 -10 7 -67 7 -126 l0 -107 45 -32 c25 -17 45 -31 45
-29 -3 21 -89 299 -95 304 -4 5 -5 0 -2 -10z"/>
<path d="M1235 1944 c-48 -34 -61 -54 -79 -127 -7 -29 -7 -29 63 20 70 48 70
48 71 96 0 26 -1 47 -3 47 -1 0 -25 -16 -52 -36z"/>
<path d="M1330 1933 c0 -44 3 -50 39 -76 25 -17 46 -25 58 -21 13 4 14 3 5 -4
-10 -7 -8 -13 12 -25 l25 -17 -16 53 c-18 62 -19 64 -78 106 l-45 32 0 -48z"/>
<path d="M1204 1795 c-61 -46 -72 -59 -78 -92 -4 -21 -10 -46 -13 -57 -3 -12
23 2 86 45 l91 63 0 48 c0 26 -3 48 -7 47 -5 0 -40 -24 -79 -54z"/>
<path d="M1330 1801 l0 -49 78 -54 c108 -76 102 -73 92 -36 -4 18 -11 45 -14
60 -5 20 -27 42 -81 78 l-75 51 0 -50z"/>
<path d="M1199 1659 l-86 -61 81 -244 c44 -134 84 -244 88 -244 4 0 8 137 8
305 0 168 -1 305 -2 305 -2 0 -42 -28 -89 -61z"/>
<path d="M1330 1421 c0 -206 3 -301 11 -301 5 0 9 8 8 18 -2 9 6 37 18 62 11
25 46 123 78 219 66 199 71 172 -47 255 l-68 47 0 -300z"/>
<path d="M528 1587 c46 -37 91 -67 100 -66 10 0 32 6 51 13 l33 12 -118 48
c-66 27 -126 51 -134 54 -8 3 23 -25 68 -61z"/>
<path d="M2031 1598 c-125 -52 -130 -58 -63 -73 29 -6 40 -1 85 34 75 59 113
91 107 90 -3 0 -61 -24 -129 -51z"/>
<path d="M508 1520 c77 -111 92 -119 92 -54 0 26 -11 40 -80 97 -43 37 -81 67
-84 67 -2 0 30 -49 72 -110z"/>
<path d="M2098 1564 l-78 -65 0 -51 c0 -30 4 -48 9 -43 9 11 134 193 145 213
11 19 6 15 -76 -54z"/>
<path d="M687 1512 l-48 -17 32 -24 31 -23 62 18 c84 24 85 25 35 45 -53 22
-52 22 -112 1z"/>
<path d="M1815 1510 l-40 -19 28 -10 c16 -6 49 -16 74 -22 42 -11 46 -10 70
14 l26 25 -53 16 c-63 19 -55 19 -105 -4z"/>
<path d="M620 1419 c0 -45 6 -71 21 -96 12 -19 25 -31 29 -26 14 14 17 134 3
129 -7 -3 -10 0 -8 7 3 7 -7 20 -20 30 l-25 18 0 -62z"/>
<path d="M1686 1454 l-49 -22 70 -21 c113 -34 124 -34 157 -7 l29 24 -74 22
c-41 12 -76 23 -79 25 -3 1 -27 -8 -54 -21z"/>
<path d="M792 1449 c-62 -20 -63 -21 -47 -39 29 -32 51 -33 142 -5 l88 27 -35
19 c-44 23 -70 23 -148 -2z"/>
<path d="M1957 1448 c-25 -22 -26 -26 -19 -97 l7 -73 28 42 c18 29 27 55 27
83 0 62 -11 74 -43 45z"/>
<path d="M707 1373 c-14 -84 -8 -133 21 -170 l27 -37 7 50 c14 107 10 138 -21
168 l-28 27 -6 -38z"/>
<path d="M901 1385 c-40 -13 -75 -26 -78 -28 -6 -6 365 -307 378 -307 6 0 9 6
7 13 -7 28 -212 347 -222 346 -6 -1 -44 -12 -85 -24z m110 -102 c13 -16 12
-17 -3 -4 -10 7 -18 15 -18 17 0 8 8 3 21 -13z"/>
<path d="M1616 1401 c-4 -5 -2 -12 4 -16 12 -8 -5 -45 -21 -45 -18 0 -45 -37
-143 -192 -19 -32 -48 -77 -62 -100 -15 -24 -21 -38 -13 -32 53 41 419 337
419 339 0 3 -69 24 -162 51 -9 3 -19 0 -22 -5z"/>
<path d="M1875 1383 c-28 -25 -29 -28 -26 -100 1 -41 6 -84 10 -95 6 -18 10
-16 35 20 26 39 27 44 21 119 -4 43 -8 79 -9 80 0 1 -14 -10 -31 -24z"/>
<path d="M1597 1373 c-4 -3 -7 -11 -7 -17 0 -6 5 -5 12 2 6 6 9 14 7 17 -3 3
-9 2 -12 -2z"/>
<path d="M1114 1328 c13 -24 43 -74 65 -113 22 -38 41 -66 41 -61 0 15 -114
216 -123 216 -4 0 3 -19 17 -42z"/>
<path d="M1490 1330 c-6 -11 -8 -20 -6 -20 3 0 10 9 16 20 6 11 8 20 6 20 -3
0 -10 -9 -16 -20z"/>
<path d="M1615 1173 c-110 -90 -209 -170 -220 -178 -11 -8 12 -3 50 11 39 15
102 37 140 50 39 13 79 28 90 33 11 5 50 20 88 33 l67 23 -1 55 c0 30 -4 73
-7 95 l-7 41 -200 -163z"/>
<path d="M796 1313 c-3 -10 -6 -51 -8 -92 l-3 -74 185 -68 c102 -38 196 -68
208 -69 19 0 3 17 -70 76 -51 41 -136 110 -188 153 -117 95 -117 96 -124 74z"/>
<path d="M1466 1283 c-6 -14 -5 -15 5 -6 7 7 10 15 7 18 -3 3 -9 -2 -12 -12z"/>
<path d="M1435 1229 c-4 -6 -5 -12 -2 -15 2 -3 7 2 10 11 7 17 1 20 -8 4z"/>
<path d="M1406 1185 c-3 -8 -1 -15 3 -15 5 0 11 7 15 15 3 8 1 15 -3 15 -5 0
-11 -7 -15 -15z"/>
<path d="M1281 1084 c0 -11 3 -14 6 -6 3 7 2 16 -1 19 -3 4 -6 -2 -5 -13z"/>
<path d="M1220 1025 c7 -8 17 -15 22 -15 6 0 5 7 -2 15 -7 8 -17 15 -22 15 -6
0 -5 -7 2 -15z"/>
<path d="M864 932 c-11 -7 -46 -113 -39 -120 6 -7 115 31 115 40 0 5 4 7 9 4
6 -4 156 39 169 49 1 1 0 10 -4 19 -5 14 -24 16 -123 16 -64 0 -121 -4 -127
-8z"/>
<path d="M1129 926 c10 -12 19 -12 44 -4 47 16 46 18 -8 18 -40 0 -46 -2 -36
-14z"/>
<path d="M1595 871 c110 -36 201 -66 202 -66 1 0 -7 31 -19 68 l-20 67 -182
-1 -181 -1 200 -67z"/>
<path d="M798 914 c-20 -10 -31 -28 -43 -70 -9 -31 -14 -58 -12 -60 2 -3 15 0
28 5 18 7 28 24 42 71 10 34 17 64 15 65 -2 2 -15 -3 -30 -11z"/>
<path d="M1790 924 c0 -4 7 -34 17 -67 12 -45 22 -61 41 -68 14 -5 26 -8 28
-7 1 2 -4 28 -13 59 -12 42 -23 60 -44 73 -16 9 -29 14 -29 10z"/>
<path d="M1396 912 c5 -5 71 -55 146 -111 l137 -103 56 43 c36 27 52 45 44 48
-8 2 -99 33 -203 68 -105 34 -186 59 -180 55z"/>
<path d="M1013 847 c-101 -34 -183 -64 -183 -67 0 -3 15 -15 33 -27 17 -13 42
-30 54 -38 20 -16 26 -12 144 77 157 119 156 117 144 117 -5 0 -92 -28 -192
-62z"/>
<path d="M1243 797 c-65 -114 -67 -145 -19 -193 19 -19 43 -34 54 -34 19 0 20
7 21 160 1 88 0 160 -1 160 -2 0 -27 -42 -55 -93z"/>
<path d="M1320 727 c0 -144 1 -157 18 -157 41 0 92 62 92 112 0 18 -84 175
-106 197 -2 2 -4 -66 -4 -152z"/>
<path d="M1889 825 c13 -43 22 -57 43 -64 l26 -9 -11 40 c-8 25 -25 50 -43 65
l-32 24 17 -56z"/>
<path d="M704 852 c-18 -15 -44 -70 -44 -93 0 -20 44 8 55 35 32 78 29 91 -11
58z"/>
<path d="M572 758 c-40 -28 -71 -53 -69 -55 2 -2 33 7 67 19 54 20 65 28 72
52 4 17 6 31 5 32 -1 1 -35 -21 -75 -48z"/>
<path d="M1976 785 c7 -39 8 -40 88 -69 37 -13 64 -21 60 -17 -27 24 -125 91
-133 91 -5 0 -12 6 -15 13 -3 6 -4 -1 0 -18z"/>
<path d="M771 769 c-28 -11 -21 -23 39 -64 29 -20 46 -26 65 -21 34 9 32 16
-17 51 -60 43 -61 44 -87 34z"/>
<path d="M1762 736 l-53 -41 30 -9 c26 -7 37 -4 80 29 28 20 51 38 51 40 0 2
-12 7 -28 13 -24 8 -34 4 -80 -32z"/>
<path d="M693 743 c-30 -6 -29 -15 7 -41 18 -14 44 -22 67 -22 l38 0 -40 35
c-22 19 -42 34 -45 33 -3 0 -15 -3 -27 -5z"/>
<path d="M1852 714 l-44 -34 39 0 c26 0 51 8 73 25 l33 24 -27 11 c-15 5 -28
10 -29 9 -1 0 -21 -16 -45 -35z"/>
<path d="M555 694 l-70 -24 55 5 c30 3 78 5 105 5 l50 0 -25 20 c-31 24 -29
24 -115 -6z"/>
<path d="M1949 700 l-24 -19 51 -1 c28 0 73 -2 100 -5 l49 -5 -69 25 c-84 30
-78 30 -107 5z"/>
<path d="M1427 610 c-18 -30 -63 -60 -92 -60 -10 0 -15 -10 -15 -31 0 -29 2
-31 28 -24 37 9 79 51 93 92 15 46 7 60 -14 23z"/>
<path d="M1170 610 c0 -51 65 -120 113 -120 14 0 18 6 15 28 -2 21 -9 28 -30
30 -16 2 -41 19 -62 43 -30 33 -36 36 -36 19z"/>
<path d="M682 2148 c-19 -19 -14 -56 8 -63 24 -8 50 10 50 34 0 19 -19 41 -35
41 -6 0 -16 -5 -23 -12z"/>
<path d="M1888 2143 c-32 -37 16 -85 50 -51 18 18 14 46 -7 58 -25 13 -25 13
-43 -7z m16 -8 c-4 -8 -11 -15 -16 -15 -6 0 -5 6 2 15 7 8 14 15 16 15 2 0 1
-7 -2 -15z"/>
<path d="M2270 1403 c-57 -86 -64 -97 -54 -91 16 10 96 128 87 128 -4 0 -19
-17 -33 -37z"/>
<path d="M2296 1331 c-4 -5 -2 -12 3 -15 5 -4 12 -2 15 3 4 5 2 12 -3 15 -5 4
-12 2 -15 -3z"/>
<path d="M2147 1228 c-13 -18 -28 -40 -32 -48 -16 -29 29 17 48 49 24 41 14
40 -16 -1z"/>
<path d="M2190 1180 c0 -5 5 -10 10 -10 6 0 10 5 10 10 0 6 -4 10 -10 10 -5 0
-10 -4 -10 -10z"/>
<path d="M2055 1097 c-16 -22 -33 -46 -37 -53 -5 -7 7 -21 32 -38 22 -14 40
-22 40 -16 0 5 -3 10 -7 10 -5 0 -19 9 -32 19 l-24 18 33 47 c40 59 36 69 -5
13z"/>
<path d="M2120 966 c0 -7 73 -56 84 -56 10 0 -30 32 -61 49 -13 6 -23 9 -23 7z"/>
<path d="M280 1140 c0 -5 5 -10 10 -10 6 0 10 5 10 10 0 6 -4 10 -10 10 -5 0
-10 -4 -10 -10z"/>
<path d="M2320 1140 c0 -5 5 -10 10 -10 6 0 10 5 10 10 0 6 -4 10 -10 10 -5 0
-10 -4 -10 -10z"/>
<path d="M658 513 c6 -2 18 -2 25 0 6 3 1 5 -13 5 -14 0 -19 -2 -12 -5z"/>
<path d="M718 513 c6 -2 18 -2 25 0 6 3 1 5 -13 5 -14 0 -19 -2 -12 -5z"/>
<path d="M838 513 c6 -2 18 -2 25 0 6 3 1 5 -13 5 -14 0 -19 -2 -12 -5z"/>
<path d="M898 513 c6 -2 18 -2 25 0 6 3 1 5 -13 5 -14 0 -19 -2 -12 -5z"/>
<path d="M958 513 c6 -2 18 -2 25 0 6 3 1 5 -13 5 -14 0 -19 -2 -12 -5z"/>
<path d="M670 455 c0 -9 5 -15 11 -13 6 2 11 8 11 13 0 5 -5 11 -11 13 -6 2
-11 -4 -11 -13z"/>
<path d="M757 464 c-8 -8 1 -24 14 -24 5 0 9 7 9 15 0 15 -12 20 -23 9z"/>
<path d="M845 461 c-7 -12 12 -24 25 -16 11 7 4 25 -10 25 -5 0 -11 -4 -15 -9z"/>
<path d="M1007 334 c-8 -8 1 -24 12 -24 4 0 8 7 8 15 0 16 -9 20 -20 9z"/>
<path d="M1638 513 c7 -3 16 -2 19 1 4 3 -2 6 -13 5 -11 0 -14 -3 -6 -6z"/>
<path d="M1698 513 c7 -3 16 -2 19 1 4 3 -2 6 -13 5 -11 0 -14 -3 -6 -6z"/>
<path d="M1758 513 c7 -3 16 -2 19 1 4 3 -2 6 -13 5 -11 0 -14 -3 -6 -6z"/>
<path d="M1818 513 c7 -3 16 -2 19 1 4 3 -2 6 -13 5 -11 0 -14 -3 -6 -6z"/>
<path d="M1878 513 c7 -3 16 -2 19 1 4 3 -2 6 -13 5 -11 0 -14 -3 -6 -6z"/>
<path d="M1938 513 c7 -3 16 -2 19 1 4 3 -2 6 -13 5 -11 0 -14 -3 -6 -6z"/>
<path d="M1740 455 c0 -8 7 -15 15 -15 8 0 15 7 15 15 0 8 -7 15 -15 15 -8 0
-15 -7 -15 -15z"/>
<path d="M1837 464 c-8 -8 1 -24 14 -24 5 0 9 7 9 15 0 15 -12 20 -23 9z"/>
<path d="M1920 455 c0 -8 7 -15 15 -15 8 0 15 7 15 15 0 8 -7 15 -15 15 -8 0
-15 -7 -15 -15z"/>
<path d="M1582 328 c6 -18 28 -21 28 -4 0 9 -7 16 -16 16 -9 0 -14 -5 -12 -12z"/>
<path d="M600 2312 c0 -7 -6 -12 -13 -12 -7 0 -20 -9 -30 -20 -23 -27 -8 -25
28 4 17 13 27 28 23 32 -5 4 -8 2 -8 -4z"/>
<path d="M2050 2287 c0 -2 53 -58 118 -123 169 -172 258 -326 316 -544 113
-421 -9 -869 -320 -1173 -177 -173 -369 -276 -614 -329 -175 -38 -424 -26
-593 28 -26 9 -53 14 -60 11 -13 -5 93 -38 188 -58 81 -18 360 -18 450 0 151
30 393 129 447 183 10 10 18 15 18 12 0 -11 91 61 157 125 116 111 179 196
249 335 239 468 153 1031 -215 1409 -77 80 -141 136 -141 124z"/>
<path d="M460 2195 c-36 -36 -61 -65 -57 -65 11 0 131 120 125 125 -2 2 -33
-25 -68 -60z"/>
<path d="M370 2105 c-7 -8 -8 -15 -2 -15 5 0 15 7 22 15 7 8 8 15 2 15 -5 0
-15 -7 -22 -15z"/>
<path d="M337 2062 c-10 -10 -17 -22 -17 -27 0 -5 9 1 21 14 12 12 19 24 17
27 -3 2 -12 -4 -21 -14z"/>
<path d="M291 1998 c-14 -23 -14 -23 8 -4 22 20 25 26 13 26 -4 0 -13 -10 -21
-22z"/>
<path d="M235 1906 c-164 -294 -199 -661 -93 -980 33 -100 119 -273 155 -312
13 -14 23 -28 23 -31 0 -24 204 -233 227 -233 7 0 13 -5 13 -10 0 -21 254
-169 267 -156 3 2 -19 17 -49 32 -228 115 -444 328 -555 549 -99 197 -144 434
-123 649 18 182 78 375 159 507 17 27 27 49 21 49 -5 0 -25 -29 -45 -64z"/>
<path d="M322 1420 c10 -14 30 -44 45 -67 15 -24 32 -43 36 -43 10 0 -69 116
-85 126 -7 5 -5 -3 4 -16z"/>
<path d="M300 1331 c0 -6 5 -13 10 -16 6 -3 10 1 10 9 0 9 -4 16 -10 16 -5 0
-10 -4 -10 -9z"/>
<path d="M440 1254 c0 -11 55 -84 63 -84 5 0 -6 20 -24 45 -32 44 -39 51 -39
39z"/>
<path d="M410 1180 c0 -5 5 -10 10 -10 6 0 10 5 10 10 0 6 -4 10 -10 10 -5 0
-10 -4 -10 -10z"/>
<path d="M554 1091 c29 -42 35 -56 25 -62 -31 -18 -54 -38 -48 -43 3 -3 21 7
39 23 l35 28 -29 41 c-16 23 -36 47 -44 54 -9 7 1 -11 22 -41z"/>
<path d="M447 943 c-20 -14 -35 -28 -33 -30 6 -6 76 40 76 50 0 9 1 10 -43
-20z"/>
<path d="M850 170 c20 -13 33 -13 25 0 -3 6 -14 10 -23 10 -15 0 -15 -2 -2
-10z"/>
</g>
</svg>
